<mxfile host="app.diagrams.net" modified="2023-08-29T11:34:23.451Z" agent="Mozilla/5.0 (Windows NT 10.0; Win64; x64) AppleWebKit/537.36 (KHTML, like Gecko) Chrome/116.0.0.0 Safari/537.36" etag="1W16_Puzcd5-6MCEEO3t" version="21.6.9" type="device">
  <diagram name="PÃ¡gina-1" id="XFsv7YPs-0f1uk_sfBqJ">
    <mxGraphModel dx="368" dy="215" grid="1" gridSize="10" guides="1" tooltips="1" connect="1" arrows="1" fold="1" page="1" pageScale="1" pageWidth="827" pageHeight="1169" math="0" shadow="0">
      <root>
        <mxCell id="0" />
        <mxCell id="1" parent="0" />
        <mxCell id="wRdA_XezOhaHbAs_rGD9-1" value="Ornitorrinco&amp;nbsp;" style="swimlane;fontStyle=1;align=center;verticalAlign=top;childLayout=stackLayout;horizontal=1;startSize=26;horizontalStack=0;resizeParent=1;resizeParentMax=0;resizeLast=0;collapsible=1;marginBottom=0;whiteSpace=wrap;html=1;" vertex="1" parent="1">
          <mxGeometry x="280" y="360" width="160" height="200" as="geometry" />
        </mxCell>
        <mxCell id="wRdA_XezOhaHbAs_rGD9-2" value="Bico: String&amp;nbsp;&lt;br&gt;Cauda: String&amp;nbsp;&lt;br&gt;Brilho no escuro: String&amp;nbsp;&lt;br&gt;Nadadeira: String&amp;nbsp;&lt;br&gt;Peso: Decimal&lt;br&gt;Tamanho: Decimal&amp;nbsp;&lt;br&gt;Largura: Decimal&amp;nbsp;&lt;br&gt;" style="text;strokeColor=none;fillColor=none;align=left;verticalAlign=top;spacingLeft=4;spacingRight=4;overflow=hidden;rotatable=0;points=[[0,0.5],[1,0.5]];portConstraint=eastwest;whiteSpace=wrap;html=1;" vertex="1" parent="wRdA_XezOhaHbAs_rGD9-1">
          <mxGeometry y="26" width="160" height="114" as="geometry" />
        </mxCell>
        <mxCell id="wRdA_XezOhaHbAs_rGD9-3" value="" style="line;strokeWidth=1;fillColor=none;align=left;verticalAlign=middle;spacingTop=-1;spacingLeft=3;spacingRight=3;rotatable=0;labelPosition=right;points=[];portConstraint=eastwest;strokeColor=inherit;" vertex="1" parent="wRdA_XezOhaHbAs_rGD9-1">
          <mxGeometry y="140" width="160" height="8" as="geometry" />
        </mxCell>
        <mxCell id="wRdA_XezOhaHbAs_rGD9-4" value="Nada(): void&lt;br&gt;Bota ovo (): void&lt;br&gt;Terrestre(): void" style="text;strokeColor=none;fillColor=none;align=left;verticalAlign=top;spacingLeft=4;spacingRight=4;overflow=hidden;rotatable=0;points=[[0,0.5],[1,0.5]];portConstraint=eastwest;whiteSpace=wrap;html=1;" vertex="1" parent="wRdA_XezOhaHbAs_rGD9-1">
          <mxGeometry y="148" width="160" height="52" as="geometry" />
        </mxCell>
      </root>
    </mxGraphModel>
  </diagram>
</mxfile>
